<?xml version="1.0" encoding="UTF-8"?>
<svg width="512" height="512" viewBox="0 0 512 512" fill="none" xmlns="http://www.w3.org/2000/svg">
  <!-- Background Circle with Gradient -->
  <circle cx="256" cy="256" r="256" fill="url(#gradient)" />
  
  <!-- Q Letter -->
  <path d="M296.5 332.5L324 360L300 384L272.5 356.5C258.167 364.167 242.333 368 225 368C187.667 368 155.833 354.833 129.5 328.5C103.167 302.167 90 270.333 90 233C90 195.667 103.167 163.833 129.5 137.5C155.833 111.167 187.667 98 225 98C262.333 98 294.167 111.167 320.5 137.5C346.833 163.833 360 195.667 360 233C360 250.333 356.167 266.167 348.5 280.5C340.833 294.833 330.167 307.167 316.5 317.5L296.5 332.5ZM225 328C251.667 328 274.167 318.833 292.5 300.5C310.833 282.167 320 259.667 320 233C320 206.333 310.833 183.833 292.5 165.5C274.167 147.167 251.667 138 225 138C198.333 138 175.833 147.167 157.5 165.5C139.167 183.833 130 206.333 130 233C130 259.667 139.167 282.167 157.5 300.5C175.833 318.833 198.333 328 225 328Z" fill="white"/>
  
  <!-- Gradient Definition -->
  <defs>
    <linearGradient id="gradient" x1="0" y1="0" x2="512" y2="512" gradientUnits="userSpaceOnUse">
      <stop offset="0%" stop-color="#7C3AED"/>
      <stop offset="100%" stop-color="#EC4899"/>
    </linearGradient>
  </defs>
</svg>
